<svg xmlns="http://www.w3.org/2000/svg" xmlns:xlink="http://www.w3.org/1999/xlink" width="200" zoomAndPan="magnify" viewBox="0 0 150 149.999998" height="200" preserveAspectRatio="xMidYMid meet" version="1.0"><defs><g/><clipPath id="7770d22444"><path d="M 22 20.398438 L 127.75 20.398438 L 127.75 103.648438 L 22 103.648438 Z M 22 20.398438 " clip-rule="nonzero"/></clipPath><clipPath id="b8a7b3ecd8"><path d="M 52.003906 53.894531 L 97.753906 53.894531 L 97.753906 99.644531 L 52.003906 99.644531 Z M 52.003906 53.894531 " clip-rule="nonzero"/></clipPath></defs><g clip-path="url(#7770d22444)"><path fill="#ffffff" d="M 124.480469 87.371094 C 123.136719 91.9375 121.089844 96.265625 118.550781 100.253906 C 116.453125 103.5 114.070312 106.550781 111.390625 109.324219 C 111.042969 109.703125 110.65625 110.042969 110.289062 110.402344 C 109.914062 110.753906 109.550781 111.113281 109.167969 111.457031 L 108.007812 112.46875 L 107.425781 112.972656 L 105.621094 114.414062 C 105.214844 114.726562 104.792969 115.019531 104.378906 115.324219 C 103.5625 115.949219 102.695312 116.5 101.847656 117.078125 C 101.722656 117.160156 101.59375 117.246094 101.460938 117.335938 C 101.320312 117.417969 101.179688 117.503906 101.027344 117.59375 C 100.726562 117.773438 100.40625 117.96875 100.0625 118.171875 C 99.382812 118.597656 98.578125 119 97.710938 119.460938 C 97.496094 119.574219 97.277344 119.695312 97.046875 119.808594 C 96.8125 119.914062 96.578125 120.023438 96.335938 120.136719 C 95.855469 120.359375 95.355469 120.589844 94.839844 120.828125 C 93.78125 121.242188 92.679688 121.738281 91.480469 122.121094 C 86.734375 123.84375 80.816406 124.90625 74.875 124.929688 C 68.933594 124.90625 63.015625 123.84375 58.269531 122.121094 C 57.070312 121.738281 55.96875 121.242188 54.910156 120.828125 C 54.394531 120.589844 53.894531 120.359375 53.414062 120.136719 C 53.171875 120.023438 52.9375 119.914062 52.703125 119.808594 C 52.472656 119.699219 52.253906 119.574219 52.039062 119.460938 C 51.171875 119 50.367188 118.597656 49.6875 118.171875 C 49.34375 117.96875 49.023438 117.773438 48.722656 117.59375 C 48.574219 117.503906 48.429688 117.417969 48.289062 117.335938 C 48.15625 117.246094 48.027344 117.160156 47.902344 117.078125 C 44.675781 114.960938 41.644531 112.558594 38.890625 109.859375 C 35.980469 106.957031 33.441406 103.703125 31.199219 100.253906 C 28.660156 96.265625 26.613281 91.9375 25.269531 87.371094 C 23.875 82.820312 23.230469 78.046875 23.1875 73.273438 C 23.230469 68.5 23.875 63.722656 25.269531 59.175781 C 26.613281 54.609375 28.660156 50.28125 31.199219 46.292969 C 33.296875 43.046875 35.679688 39.996094 38.359375 37.222656 C 38.707031 36.84375 39.09375 36.503906 39.460938 36.144531 C 39.835938 35.792969 40.199219 35.429688 40.582031 35.089844 L 41.742188 34.078125 L 42.324219 33.570312 L 42.925781 33.09375 L 44.128906 32.132812 C 44.535156 31.820312 44.957031 31.527344 45.371094 31.222656 C 46.1875 30.597656 47.054688 30.046875 47.902344 29.46875 C 48.027344 29.386719 48.15625 29.300781 48.289062 29.210938 C 48.425781 29.128906 48.570312 29.042969 48.722656 28.949219 C 49.023438 28.773438 49.34375 28.578125 49.6875 28.375 C 50.367188 27.945312 51.171875 27.546875 52.035156 27.085938 C 52.253906 26.972656 52.472656 26.847656 52.703125 26.738281 C 52.9375 26.632812 53.171875 26.519531 53.414062 26.410156 C 53.894531 26.1875 54.394531 25.957031 54.910156 25.71875 C 55.96875 25.304688 57.070312 24.808594 58.269531 24.425781 C 63.015625 22.703125 68.933594 21.640625 74.875 21.617188 C 80.816406 21.640625 86.734375 22.703125 91.480469 24.425781 C 92.679688 24.808594 93.78125 25.304688 94.839844 25.71875 C 95.355469 25.957031 95.851562 26.1875 96.335938 26.410156 C 96.578125 26.519531 96.8125 26.632812 97.046875 26.738281 C 97.273438 26.847656 97.492188 26.972656 97.710938 27.085938 C 98.578125 27.546875 99.382812 27.945312 100.0625 28.375 C 100.40625 28.578125 100.726562 28.773438 101.027344 28.949219 C 101.175781 29.039062 101.320312 29.128906 101.460938 29.210938 C 101.59375 29.300781 101.722656 29.386719 101.84375 29.46875 C 105.074219 31.585938 108.105469 33.988281 110.859375 36.6875 C 113.769531 39.589844 116.308594 42.84375 118.550781 46.292969 C 121.089844 50.28125 123.136719 54.609375 124.480469 59.175781 C 125.875 63.722656 126.519531 68.5 126.5625 73.273438 C 126.519531 78.046875 125.875 82.820312 124.480469 87.371094 Z M 127.75 73.238281 L 127.75 73.234375 C 127.707031 68.359375 127.050781 63.480469 125.628906 58.828125 C 124.261719 54.164062 122.171875 49.734375 119.5625 45.667969 L 118.308594 43.78125 C 118.308594 43.78125 117.945312 43.273438 117.402344 42.515625 C 116.878906 41.738281 116.078125 40.78125 115.3125 39.800781 C 114.488281 38.867188 113.699219 37.902344 113.035156 37.246094 C 112.386719 36.570312 111.957031 36.121094 111.957031 36.121094 C 111.957031 36.121094 111.847656 36.011719 111.652344 35.820312 C 111.457031 35.632812 111.175781 35.363281 110.839844 35.039062 C 110.1875 34.371094 109.234375 33.566406 108.304688 32.742188 C 107.824219 32.34375 107.332031 31.964844 106.878906 31.597656 C 106.648438 31.414062 106.429688 31.242188 106.21875 31.074219 C 106.003906 30.917969 105.796875 30.769531 105.609375 30.632812 C 104.851562 30.085938 104.34375 29.722656 104.34375 29.722656 C 104.34375 29.722656 104.234375 29.632812 104.058594 29.519531 C 103.882812 29.398438 103.648438 29.242188 103.414062 29.085938 C 102.941406 28.769531 102.472656 28.457031 102.472656 28.457031 C 102.347656 28.371094 102.214844 28.285156 102.078125 28.191406 C 101.9375 28.105469 101.789062 28.015625 101.636719 27.921875 C 101.332031 27.738281 101 27.542969 100.648438 27.332031 C 99.957031 26.894531 99.132812 26.480469 98.246094 26.007812 C 98.023438 25.890625 97.800781 25.765625 97.566406 25.652344 C 97.328125 25.542969 97.085938 25.429688 96.839844 25.3125 C 96.347656 25.085938 95.835938 24.847656 95.308594 24.605469 C 94.226562 24.179688 93.097656 23.671875 91.871094 23.277344 C 87.015625 21.515625 80.953125 20.421875 74.875 20.398438 C 68.796875 20.421875 62.734375 21.515625 57.878906 23.277344 C 56.652344 23.671875 55.523438 24.179688 54.441406 24.605469 C 53.914062 24.847656 53.402344 25.085938 52.910156 25.316406 C 52.664062 25.429688 52.421875 25.542969 52.183594 25.652344 C 51.949219 25.765625 51.726562 25.890625 51.503906 26.007812 C 50.613281 26.480469 49.792969 26.894531 49.101562 27.332031 C 48.75 27.542969 48.417969 27.738281 48.113281 27.921875 C 47.960938 28.015625 47.8125 28.105469 47.671875 28.191406 C 47.535156 28.285156 47.402344 28.371094 47.277344 28.457031 C 47.277344 28.457031 46.808594 28.769531 46.335938 29.085938 C 46.101562 29.242188 45.867188 29.398438 45.691406 29.519531 C 45.515625 29.632812 45.40625 29.722656 45.40625 29.722656 C 45.40625 29.722656 44.898438 30.085938 44.140625 30.632812 C 43.953125 30.769531 43.746094 30.917969 43.53125 31.074219 C 43.320312 31.242188 43.101562 31.414062 42.871094 31.597656 C 42.417969 31.964844 41.925781 32.34375 41.445312 32.742188 C 40.515625 33.566406 39.5625 34.371094 38.910156 35.039062 C 38.574219 35.363281 38.292969 35.632812 38.097656 35.820312 C 37.902344 36.011719 37.792969 36.121094 37.792969 36.121094 C 37.792969 36.121094 37.363281 36.570312 36.714844 37.246094 C 36.050781 37.902344 35.261719 38.867188 34.4375 39.800781 C 33.671875 40.78125 32.871094 41.738281 32.347656 42.515625 C 31.804688 43.273438 31.441406 43.78125 31.441406 43.78125 L 30.1875 45.667969 C 27.578125 49.734375 25.488281 54.164062 24.121094 58.828125 C 22.699219 63.480469 22.042969 68.359375 22 73.234375 L 22 73.3125 C 22.042969 78.1875 22.699219 83.066406 24.121094 87.71875 C 25.488281 92.382812 27.578125 96.8125 30.1875 100.878906 L 31.441406 102.765625 C 31.441406 102.765625 31.804688 103.269531 32.347656 104.03125 C 32.871094 104.808594 33.671875 105.761719 34.4375 106.746094 C 35.261719 107.679688 36.050781 108.644531 36.714844 109.300781 C 37.363281 109.976562 37.792969 110.425781 37.792969 110.425781 C 37.792969 110.425781 37.902344 110.535156 38.097656 110.722656 C 38.292969 110.914062 38.574219 111.183594 38.910156 111.507812 C 39.5625 112.175781 40.515625 112.980469 41.445312 113.804688 C 41.925781 114.203125 42.417969 114.582031 42.871094 114.949219 C 43.101562 115.128906 43.320312 115.304688 43.53125 115.472656 C 43.746094 115.628906 43.953125 115.777344 44.140625 115.914062 C 44.898438 116.460938 45.40625 116.824219 45.40625 116.824219 C 45.40625 116.824219 45.515625 116.914062 45.691406 117.027344 C 45.867188 117.144531 46.101562 117.304688 46.335938 117.460938 C 46.808594 117.773438 47.277344 118.089844 47.277344 118.089844 C 47.402344 118.175781 47.535156 118.261719 47.671875 118.355469 C 47.8125 118.441406 47.960938 118.53125 48.113281 118.621094 C 48.417969 118.808594 48.75 119.003906 49.101562 119.214844 C 49.792969 119.652344 50.617188 120.066406 51.503906 120.539062 C 51.726562 120.65625 51.949219 120.78125 52.183594 120.894531 C 52.421875 121.003906 52.664062 121.117188 52.910156 121.230469 C 53.402344 121.460938 53.914062 121.695312 54.441406 121.941406 C 55.523438 122.367188 56.652344 122.871094 57.878906 123.269531 C 62.734375 125.03125 68.796875 126.125 74.875 126.148438 C 80.953125 126.125 87.015625 125.03125 91.871094 123.269531 C 93.097656 122.871094 94.226562 122.367188 95.308594 121.941406 C 95.835938 121.695312 96.347656 121.460938 96.839844 121.230469 C 97.085938 121.117188 97.328125 121.003906 97.566406 120.894531 C 97.800781 120.78125 98.023438 120.65625 98.246094 120.539062 C 99.132812 120.066406 99.957031 119.652344 100.648438 119.214844 C 101 119.003906 101.332031 118.808594 101.636719 118.621094 C 101.789062 118.53125 101.9375 118.441406 102.078125 118.355469 C 102.214844 118.261719 102.347656 118.175781 102.472656 118.089844 C 102.472656 118.089844 102.941406 117.773438 103.414062 117.460938 C 103.648438 117.304688 103.882812 117.144531 104.058594 117.027344 C 104.234375 116.914062 104.34375 116.824219 104.34375 116.824219 C 104.34375 116.824219 104.851562 116.460938 105.609375 115.914062 C 105.796875 115.777344 106.003906 115.628906 106.21875 115.472656 C 106.429688 115.304688 106.648438 115.128906 106.878906 114.949219 C 107.332031 114.582031 107.824219 114.203125 108.304688 113.804688 C 109.234375 112.980469 110.1875 112.175781 110.839844 111.507812 C 111.175781 111.183594 111.457031 110.914062 111.652344 110.722656 C 111.847656 110.535156 111.957031 110.425781 111.957031 110.425781 C 111.957031 110.425781 112.386719 109.976562 113.035156 109.300781 C 113.699219 108.644531 114.488281 107.679688 115.3125 106.746094 C 116.078125 105.761719 116.878906 104.808594 117.402344 104.03125 C 117.945312 103.269531 118.308594 102.765625 118.308594 102.765625 L 119.5625 100.878906 C 122.171875 96.8125 124.261719 92.382812 125.628906 87.71875 C 127.050781 83.066406 127.707031 78.1875 127.75 73.3125 L 127.75 73.238281 " fill-opacity="1" fill-rule="nonzero"/></g><g clip-path="url(#b8a7b3ecd8)"><path fill="#ffffff" d="M 97.589844 54.515625 C 97.589844 54.503906 97.589844 54.496094 97.589844 54.488281 C 97.589844 54.480469 97.585938 54.476562 97.585938 54.46875 C 97.582031 54.453125 97.582031 54.4375 97.578125 54.421875 C 97.574219 54.410156 97.574219 54.402344 97.574219 54.390625 C 97.570312 54.382812 97.566406 54.375 97.566406 54.371094 C 97.5625 54.355469 97.554688 54.34375 97.550781 54.332031 C 97.546875 54.320312 97.542969 54.308594 97.539062 54.300781 C 97.535156 54.292969 97.53125 54.285156 97.527344 54.277344 C 97.519531 54.265625 97.515625 54.257812 97.507812 54.246094 C 97.503906 54.238281 97.496094 54.226562 97.488281 54.21875 C 97.484375 54.210938 97.476562 54.203125 97.472656 54.195312 C 97.464844 54.1875 97.457031 54.179688 97.449219 54.171875 C 97.441406 54.164062 97.433594 54.15625 97.425781 54.148438 C 97.417969 54.140625 97.410156 54.132812 97.402344 54.128906 C 97.394531 54.121094 97.386719 54.113281 97.378906 54.109375 C 97.371094 54.101562 97.363281 54.097656 97.351562 54.089844 C 97.34375 54.085938 97.332031 54.078125 97.320312 54.074219 C 97.3125 54.066406 97.308594 54.0625 97.300781 54.058594 C 97.289062 54.054688 97.28125 54.050781 97.269531 54.046875 C 97.257812 54.042969 97.242188 54.039062 97.230469 54.035156 C 97.222656 54.03125 97.214844 54.027344 97.207031 54.027344 C 97.199219 54.023438 97.1875 54.023438 97.175781 54.019531 C 97.164062 54.019531 97.148438 54.015625 97.132812 54.015625 C 97.125 54.011719 97.117188 54.011719 97.109375 54.011719 C 97.109375 54.011719 97.085938 54.007812 97.054688 54.007812 C 96.601562 53.988281 93.605469 53.898438 89.457031 54.945312 C 89.398438 54.960938 89.34375 54.972656 89.289062 54.988281 C 89.222656 55.003906 89.160156 55.019531 89.09375 55.039062 C 89.003906 55.0625 88.914062 55.085938 88.824219 55.109375 C 88.78125 55.121094 88.738281 55.132812 88.691406 55.148438 C 88.550781 55.1875 88.410156 55.226562 88.265625 55.269531 C 88.265625 55.269531 88.265625 55.269531 88.261719 55.269531 C 83.425781 56.679688 76.5 59.925781 70.832031 67.402344 C 69.0625 67.164062 65.863281 67.085938 62.414062 68.738281 C 57.921875 70.882812 54.453125 75.21875 52.097656 81.621094 C 52.019531 81.835938 52.09375 82.078125 52.28125 82.210938 C 52.371094 82.273438 52.472656 82.304688 52.578125 82.304688 C 52.691406 82.304688 52.804688 82.265625 52.898438 82.191406 C 52.96875 82.132812 59.886719 76.527344 64.988281 78.074219 C 64.761719 78.65625 64.542969 79.253906 64.332031 79.859375 L 64.046875 79.574219 C 63.847656 79.375 63.523438 79.375 63.324219 79.574219 L 61.835938 81.066406 C 61.636719 81.265625 61.636719 81.589844 61.835938 81.789062 L 63.046875 83.003906 L 61.097656 84.960938 C 60.898438 85.160156 60.898438 85.484375 61.097656 85.683594 L 65.996094 90.59375 C 66.09375 90.695312 66.226562 90.746094 66.355469 90.746094 C 66.484375 90.746094 66.617188 90.695312 66.714844 90.59375 L 68.667969 88.640625 L 69.878906 89.855469 C 69.980469 89.953125 70.109375 90.003906 70.238281 90.003906 C 70.371094 90.003906 70.5 89.953125 70.597656 89.855469 L 72.089844 88.359375 C 72.289062 88.160156 72.289062 87.835938 72.089844 87.636719 L 71.804688 87.351562 C 72.410156 87.140625 73.003906 86.921875 73.585938 86.695312 C 75.125 91.804688 69.539062 98.742188 69.480469 98.8125 C 69.335938 98.992188 69.324219 99.246094 69.460938 99.433594 C 69.558594 99.570312 69.710938 99.648438 69.875 99.648438 C 69.933594 99.648438 69.992188 99.636719 70.050781 99.617188 C 76.433594 97.257812 80.757812 93.777344 82.898438 89.273438 C 84.546875 85.816406 84.46875 82.605469 84.230469 80.835938 C 91.6875 75.152344 94.929688 68.207031 96.335938 63.355469 C 97.75 58.472656 97.609375 54.875 97.589844 54.515625 Z M 53.703125 80.332031 C 55.925781 75.085938 58.996094 71.5 62.851562 69.65625 C 65.734375 68.28125 68.425781 68.195312 70.136719 68.351562 C 68.289062 70.953125 66.6875 73.898438 65.363281 77.125 C 61.179688 75.792969 56.136719 78.667969 53.703125 80.332031 Z M 66.355469 89.511719 L 62.175781 85.324219 L 63.765625 83.726562 L 67.945312 87.917969 Z M 70.238281 88.773438 L 69.027344 87.558594 C 69.027344 87.558594 69.027344 87.558594 69.027344 87.554688 L 64.128906 82.644531 C 64.128906 82.644531 64.125 82.644531 64.125 82.644531 L 62.914062 81.429688 L 63.683594 80.65625 L 71.011719 88 Z M 81.980469 88.835938 C 80.140625 92.699219 76.5625 95.78125 71.332031 98.007812 C 72.992188 95.566406 75.859375 90.511719 74.535156 86.316406 C 77.75 84.988281 80.6875 83.382812 83.28125 81.53125 C 83.441406 83.25 83.355469 85.945312 81.980469 88.835938 Z M 83.375 80.199219 C 80.566406 82.304688 77.308594 84.109375 73.703125 85.554688 C 72.835938 85.898438 71.929688 86.234375 71.003906 86.546875 L 65.132812 80.664062 C 65.445312 79.738281 65.777344 78.828125 66.125 77.957031 C 67.566406 74.339844 69.363281 71.078125 71.464844 68.257812 C 76.789062 61.113281 83.296875 57.875 88.003906 56.410156 C 88.371094 58.1875 89.234375 59.792969 90.527344 61.089844 C 91.816406 62.386719 93.421875 63.25 95.191406 63.617188 C 93.730469 68.335938 90.503906 74.863281 83.375 80.199219 Z M 96.582031 55.09375 C 96.582031 55.121094 96.582031 55.144531 96.582031 55.171875 C 96.582031 55.191406 96.582031 55.210938 96.582031 55.230469 C 96.582031 55.273438 96.578125 55.324219 96.578125 55.371094 C 96.578125 55.386719 96.578125 55.402344 96.578125 55.414062 C 96.578125 55.457031 96.574219 55.496094 96.574219 55.535156 C 96.574219 55.558594 96.574219 55.578125 96.574219 55.601562 C 96.574219 55.640625 96.570312 55.679688 96.570312 55.722656 C 96.570312 55.742188 96.566406 55.765625 96.566406 55.785156 C 96.566406 55.847656 96.5625 55.90625 96.558594 55.96875 C 96.558594 55.976562 96.558594 55.984375 96.558594 55.992188 C 96.554688 56.054688 96.554688 56.121094 96.550781 56.1875 C 96.546875 56.210938 96.546875 56.234375 96.546875 56.257812 C 96.542969 56.308594 96.539062 56.363281 96.535156 56.417969 C 96.535156 56.441406 96.53125 56.464844 96.53125 56.488281 C 96.527344 56.558594 96.523438 56.625 96.515625 56.695312 C 96.515625 56.707031 96.515625 56.71875 96.515625 56.730469 C 96.507812 56.8125 96.503906 56.894531 96.496094 56.980469 C 96.492188 57.003906 96.492188 57.027344 96.488281 57.050781 C 96.484375 57.117188 96.476562 57.179688 96.472656 57.246094 C 96.46875 57.273438 96.464844 57.304688 96.464844 57.332031 C 96.457031 57.40625 96.449219 57.480469 96.441406 57.558594 C 96.4375 57.574219 96.4375 57.59375 96.433594 57.609375 C 96.425781 57.703125 96.414062 57.800781 96.402344 57.898438 C 96.398438 57.921875 96.398438 57.945312 96.394531 57.96875 C 96.386719 58.046875 96.375 58.125 96.367188 58.199219 C 96.363281 58.234375 96.359375 58.265625 96.355469 58.296875 C 96.34375 58.375 96.332031 58.457031 96.320312 58.539062 C 96.316406 58.5625 96.316406 58.585938 96.3125 58.613281 C 96.296875 58.71875 96.28125 58.824219 96.265625 58.933594 C 96.261719 58.957031 96.257812 58.976562 96.253906 59 C 96.242188 59.089844 96.226562 59.179688 96.210938 59.269531 C 96.207031 59.304688 96.203125 59.335938 96.195312 59.371094 C 96.179688 59.457031 96.167969 59.546875 96.152344 59.632812 C 96.144531 59.664062 96.140625 59.691406 96.136719 59.722656 C 96.113281 59.839844 96.09375 59.957031 96.070312 60.078125 C 96.070312 60.089844 96.066406 60.101562 96.0625 60.113281 C 96.042969 60.222656 96.023438 60.332031 96 60.441406 C 95.992188 60.476562 95.984375 60.507812 95.980469 60.542969 C 95.960938 60.636719 95.941406 60.734375 95.917969 60.832031 C 95.914062 60.863281 95.90625 60.894531 95.898438 60.925781 C 95.84375 61.179688 95.785156 61.4375 95.71875 61.703125 C 95.710938 61.734375 95.703125 61.769531 95.695312 61.804688 C 95.671875 61.90625 95.644531 62.007812 95.617188 62.113281 C 95.609375 62.148438 95.601562 62.179688 95.589844 62.214844 C 95.554688 62.347656 95.519531 62.484375 95.484375 62.617188 C 95.484375 62.617188 95.484375 62.621094 95.484375 62.621094 C 95.480469 62.625 95.480469 62.628906 95.480469 62.636719 C 93.871094 62.320312 92.414062 61.539062 91.246094 60.367188 C 90.078125 59.195312 89.300781 57.734375 88.984375 56.125 C 89.128906 56.085938 89.273438 56.046875 89.414062 56.007812 C 89.4375 56.003906 89.460938 55.996094 89.484375 55.992188 C 89.609375 55.957031 89.730469 55.925781 89.855469 55.898438 C 89.867188 55.894531 89.878906 55.890625 89.890625 55.886719 C 93.09375 55.105469 95.589844 55.015625 96.582031 55.019531 C 96.582031 55.023438 96.582031 55.03125 96.582031 55.035156 C 96.582031 55.054688 96.582031 55.074219 96.582031 55.09375 Z M 96.582031 55.09375 " fill-opacity="1" fill-rule="nonzero"/></g><path fill="#ffffff" d="M 82.394531 64.667969 C 79.878906 64.667969 77.832031 66.722656 77.832031 69.242188 C 77.832031 71.765625 79.878906 73.816406 82.394531 73.816406 C 84.910156 73.816406 86.957031 71.765625 86.957031 69.242188 C 86.957031 66.722656 84.910156 64.667969 82.394531 64.667969 Z M 82.394531 72.796875 C 80.441406 72.796875 78.851562 71.203125 78.851562 69.242188 C 78.851562 67.285156 80.441406 65.691406 82.394531 65.691406 C 84.347656 65.691406 85.9375 67.285156 85.9375 69.242188 C 85.9375 71.203125 84.347656 72.796875 82.394531 72.796875 Z M 82.394531 72.796875 " fill-opacity="1" fill-rule="nonzero"/><path fill="#ffffff" d="M 62.324219 89.363281 C 62.125 89.164062 61.804688 89.164062 61.605469 89.363281 L 55.214844 95.769531 C 55.015625 95.96875 55.015625 96.292969 55.214844 96.492188 C 55.3125 96.589844 55.445312 96.640625 55.574219 96.640625 C 55.703125 96.640625 55.835938 96.589844 55.933594 96.492188 L 62.324219 90.085938 C 62.523438 89.886719 62.523438 89.5625 62.324219 89.363281 Z M 62.324219 89.363281 " fill-opacity="1" fill-rule="nonzero"/><path fill="#ffffff" d="M 64.777344 91.820312 C 64.578125 91.621094 64.257812 91.621094 64.058594 91.820312 L 59.882812 96.003906 C 59.683594 96.203125 59.683594 96.527344 59.882812 96.726562 C 59.984375 96.828125 60.113281 96.875 60.246094 96.875 C 60.375 96.875 60.503906 96.828125 60.605469 96.726562 L 64.777344 92.542969 C 64.976562 92.34375 64.976562 92.019531 64.777344 91.820312 Z M 64.777344 91.820312 " fill-opacity="1" fill-rule="nonzero"/><path fill="#ffffff" d="M 69.277344 92.226562 C 69.078125 92.027344 68.757812 92.027344 68.558594 92.226562 L 64.183594 96.613281 C 63.984375 96.8125 63.984375 97.132812 64.183594 97.332031 C 64.285156 97.433594 64.414062 97.484375 64.542969 97.484375 C 64.675781 97.484375 64.804688 97.433594 64.902344 97.332031 L 69.277344 92.949219 C 69.476562 92.75 69.476562 92.425781 69.277344 92.226562 Z M 69.277344 92.226562 " fill-opacity="1" fill-rule="nonzero"/><path fill="#ffffff" d="M 59.46875 83.113281 C 59.667969 82.914062 59.667969 82.59375 59.46875 82.394531 C 59.269531 82.195312 58.949219 82.195312 58.75 82.394531 L 54.375 86.777344 C 54.175781 86.976562 54.175781 87.300781 54.375 87.5 C 54.476562 87.597656 54.605469 87.648438 54.734375 87.648438 C 54.867188 87.648438 54.996094 87.597656 55.09375 87.5 Z M 59.46875 83.113281 " fill-opacity="1" fill-rule="nonzero"/><path fill="#ffffff" d="M 55.699219 91.808594 L 59.871094 87.625 C 60.070312 87.425781 60.070312 87.105469 59.871094 86.90625 C 59.675781 86.707031 59.351562 86.707031 59.152344 86.90625 L 54.980469 91.089844 C 54.78125 91.289062 54.78125 91.609375 54.980469 91.808594 C 55.078125 91.910156 55.210938 91.960938 55.339844 91.960938 C 55.46875 91.960938 55.601562 91.910156 55.699219 91.808594 Z M 55.699219 91.808594 " fill-opacity="1" fill-rule="nonzero"/><g fill="#ffffff" fill-opacity="1"><g transform="translate(36.830202, 113.249327)"><g><path d="M 1.5 1.382812 C 1.644531 1.511719 1.800781 1.621094 1.980469 1.695312 C 2.066406 1.738281 2.167969 1.773438 2.265625 1.800781 C 2.402344 1.839844 2.542969 1.875 2.691406 1.867188 C 2.824219 1.851562 2.960938 1.835938 3.089844 1.792969 C 3.175781 1.765625 3.21875 1.703125 3.203125 1.609375 C 3.1875 1.527344 3.167969 1.449219 3.144531 1.363281 C 3.128906 1.273438 3.105469 1.179688 3.074219 1.089844 C 3.058594 1.027344 3.019531 0.996094 2.960938 0.976562 C 2.867188 0.945312 2.765625 0.953125 2.671875 0.941406 C 2.605469 0.933594 2.542969 0.929688 2.480469 0.902344 C 2.4375 0.886719 2.390625 0.875 2.347656 0.859375 C 2.316406 0.839844 2.292969 0.824219 2.261719 0.804688 C 2.191406 0.753906 2.148438 0.683594 2.097656 0.609375 C 2.0625 0.5625 2.03125 0.507812 2.015625 0.449219 C 1.996094 0.371094 1.980469 0.289062 1.957031 0.214844 C 1.929688 0.136719 1.921875 0.0429688 1.945312 -0.0390625 C 1.957031 -0.101562 1.957031 -0.167969 1.972656 -0.230469 C 2.007812 -0.34375 2.042969 -0.453125 2.089844 -0.5625 C 2.109375 -0.632812 2.132812 -0.707031 2.175781 -0.765625 C 2.230469 -0.859375 2.296875 -0.945312 2.363281 -1.027344 C 2.539062 -1.238281 2.710938 -1.445312 2.925781 -1.613281 C 2.980469 -1.660156 3.042969 -1.710938 3.105469 -1.75 C 3.183594 -1.800781 3.265625 -1.84375 3.351562 -1.886719 C 3.433594 -1.941406 3.519531 -1.976562 3.613281 -1.988281 C 3.757812 -2.015625 3.898438 -2.003906 4.039062 -1.949219 C 4.078125 -1.9375 4.113281 -1.925781 4.144531 -1.90625 C 4.273438 -1.847656 4.375 -1.765625 4.429688 -1.632812 C 4.472656 -1.535156 4.464844 -1.425781 4.46875 -1.328125 C 4.46875 -1.28125 4.46875 -1.238281 4.472656 -1.195312 C 4.496094 -1.101562 4.515625 -1.082031 4.625 -1.078125 C 4.652344 -1.074219 4.679688 -1.078125 4.707031 -1.074219 C 4.796875 -1.066406 4.878906 -1.066406 4.960938 -1.050781 C 5.046875 -1.042969 5.132812 -1.058594 5.214844 -1.074219 C 5.285156 -1.089844 5.351562 -1.117188 5.382812 -1.175781 C 5.421875 -1.269531 5.4375 -1.367188 5.429688 -1.46875 C 5.421875 -1.539062 5.398438 -1.613281 5.382812 -1.695312 C 5.367188 -1.808594 5.339844 -1.933594 5.292969 -2.046875 C 5.21875 -2.242188 5.121094 -2.425781 4.953125 -2.566406 C 4.894531 -2.617188 4.839844 -2.660156 4.773438 -2.695312 C 4.71875 -2.730469 4.660156 -2.753906 4.601562 -2.773438 C 4.386719 -2.851562 4.171875 -2.917969 3.941406 -2.921875 C 3.726562 -2.921875 3.511719 -2.914062 3.308594 -2.859375 C 3.128906 -2.8125 2.964844 -2.730469 2.808594 -2.644531 C 2.691406 -2.582031 2.585938 -2.511719 2.484375 -2.445312 C 2.363281 -2.367188 2.25 -2.285156 2.15625 -2.1875 C 2.113281 -2.144531 2.070312 -2.117188 2.027344 -2.078125 C 2.003906 -2.058594 1.976562 -2.046875 1.945312 -2.023438 C 1.863281 -1.945312 1.777344 -1.875 1.695312 -1.792969 C 1.585938 -1.679688 1.492188 -1.558594 1.410156 -1.421875 C 1.351562 -1.332031 1.292969 -1.226562 1.242188 -1.132812 C 1.203125 -1.0625 1.164062 -0.980469 1.128906 -0.90625 C 1.101562 -0.851562 1.082031 -0.785156 1.058594 -0.730469 C 1.019531 -0.660156 0.996094 -0.578125 0.984375 -0.492188 C 0.972656 -0.445312 0.96875 -0.402344 0.960938 -0.355469 C 0.929688 -0.191406 0.890625 -0.0234375 0.886719 0.140625 C 0.878906 0.328125 0.910156 0.515625 0.972656 0.6875 C 0.992188 0.730469 1.015625 0.769531 1.03125 0.8125 C 1.074219 0.882812 1.121094 0.949219 1.167969 1.027344 C 1.246094 1.140625 1.332031 1.25 1.445312 1.335938 C 1.460938 1.347656 1.484375 1.367188 1.5 1.382812 Z M 1.5 1.382812 "/></g></g></g><g fill="#ffffff" fill-opacity="1"><g transform="translate(41.611779, 117.074226)"><g><path d="M 0.78125 -0.5 C 0.789062 -0.496094 0.789062 -0.496094 0.792969 -0.492188 C 0.628906 -0.246094 0.464844 0.00390625 0.300781 0.25 C 0.273438 0.292969 0.277344 0.324219 0.328125 0.347656 C 0.414062 0.40625 0.507812 0.457031 0.589844 0.515625 C 0.75 0.628906 0.921875 0.71875 1.089844 0.804688 C 1.121094 0.824219 1.144531 0.8125 1.167969 0.792969 C 1.179688 0.777344 1.195312 0.75 1.210938 0.726562 C 1.441406 0.378906 1.675781 0.0273438 1.902344 -0.324219 C 1.933594 -0.371094 1.933594 -0.371094 1.988281 -0.347656 C 2.074219 -0.296875 2.15625 -0.25 2.246094 -0.203125 C 2.277344 -0.1875 2.285156 -0.171875 2.273438 -0.140625 C 2.261719 -0.0859375 2.253906 -0.03125 2.238281 0.0273438 C 2.222656 0.128906 2.199219 0.226562 2.191406 0.332031 C 2.179688 0.457031 2.175781 0.574219 2.167969 0.691406 C 2.164062 0.773438 2.171875 0.855469 2.15625 0.933594 C 2.125 1.085938 2.101562 1.234375 2.097656 1.386719 C 2.09375 1.429688 2.109375 1.457031 2.136719 1.480469 C 2.214844 1.535156 2.292969 1.597656 2.382812 1.644531 C 2.503906 1.71875 2.632812 1.777344 2.753906 1.851562 C 2.832031 1.894531 2.898438 1.9375 2.976562 1.945312 C 3.03125 1.957031 3.058594 1.957031 3.082031 1.90625 C 3.113281 1.847656 3.136719 1.785156 3.15625 1.71875 C 3.179688 1.589844 3.203125 1.464844 3.214844 1.328125 C 3.226562 1.195312 3.25 1.054688 3.285156 0.925781 C 3.292969 0.910156 3.296875 0.894531 3.296875 0.878906 C 3.320312 0.757812 3.339844 0.632812 3.359375 0.515625 C 3.371094 0.445312 3.378906 0.378906 3.386719 0.316406 C 3.390625 0.25 3.390625 0.179688 3.390625 0.101562 C 3.398438 0.0820312 3.40625 0.0703125 3.429688 0.0703125 C 3.492188 0.0664062 3.554688 0.0664062 3.609375 0.0585938 C 3.652344 0.0507812 3.6875 0.0507812 3.722656 0.03125 C 3.84375 -0.0195312 3.96875 -0.0742188 4.066406 -0.15625 C 4.230469 -0.289062 4.394531 -0.429688 4.519531 -0.605469 C 4.59375 -0.703125 4.667969 -0.8125 4.738281 -0.921875 C 4.925781 -1.203125 5.046875 -1.511719 5.117188 -1.84375 C 5.125 -1.90625 5.152344 -1.96875 5.148438 -2.03125 C 5.148438 -2.304688 5.097656 -2.566406 4.925781 -2.785156 C 4.875 -2.84375 4.824219 -2.894531 4.765625 -2.933594 C 4.597656 -3.046875 4.417969 -3.15625 4.246094 -3.273438 C 4.089844 -3.375 3.929688 -3.488281 3.769531 -3.597656 C 3.726562 -3.625 3.695312 -3.65625 3.660156 -3.679688 C 3.59375 -3.714844 3.539062 -3.742188 3.476562 -3.78125 C 3.4375 -3.8125 3.398438 -3.84375 3.355469 -3.871094 C 3.324219 -3.902344 3.292969 -3.933594 3.253906 -3.964844 C 3.214844 -4 3.183594 -4.039062 3.132812 -4.054688 C 3.09375 -4.0625 3.070312 -4.054688 3.050781 -4.023438 C 3.007812 -3.957031 2.957031 -3.894531 2.917969 -3.835938 C 2.628906 -3.429688 2.355469 -3.015625 2.089844 -2.59375 C 1.988281 -2.429688 1.886719 -2.265625 1.785156 -2.097656 C 1.714844 -1.992188 1.640625 -1.882812 1.582031 -1.777344 C 1.460938 -1.585938 1.351562 -1.394531 1.238281 -1.210938 C 1.085938 -0.972656 0.933594 -0.738281 0.78125 -0.5 Z M 2.96875 -1.898438 C 3.121094 -2.128906 3.269531 -2.355469 3.417969 -2.578125 C 3.441406 -2.613281 3.441406 -2.613281 3.472656 -2.59375 C 3.519531 -2.570312 3.554688 -2.546875 3.59375 -2.527344 C 3.691406 -2.480469 3.78125 -2.421875 3.863281 -2.347656 C 3.933594 -2.296875 3.972656 -2.226562 3.984375 -2.140625 C 4.007812 -2.046875 4.011719 -1.957031 3.988281 -1.859375 C 3.964844 -1.789062 3.964844 -1.710938 3.925781 -1.632812 C 3.894531 -1.585938 3.871094 -1.539062 3.839844 -1.492188 C 3.75 -1.34375 3.667969 -1.199219 3.546875 -1.082031 C 3.472656 -1.007812 3.382812 -0.949219 3.277344 -0.921875 C 3.207031 -0.910156 3.136719 -0.90625 3.0625 -0.910156 C 2.972656 -0.917969 2.894531 -0.953125 2.804688 -0.980469 C 2.789062 -0.980469 2.777344 -0.988281 2.765625 -0.996094 C 2.6875 -1.046875 2.601562 -1.105469 2.523438 -1.15625 C 2.476562 -1.1875 2.476562 -1.1875 2.511719 -1.242188 C 2.609375 -1.386719 2.714844 -1.53125 2.816406 -1.671875 C 2.867188 -1.75 2.921875 -1.828125 2.96875 -1.898438 Z M 2.96875 -1.898438 "/></g></g></g><g fill="#ffffff" fill-opacity="1"><g transform="translate(46.839457, 120.409315)"><g><path d="M 1.324219 -1.898438 C 1.3125 -1.875 1.296875 -1.847656 1.285156 -1.824219 C 1.128906 -1.566406 1 -1.289062 0.933594 -0.984375 C 0.914062 -0.886719 0.894531 -0.785156 0.882812 -0.6875 C 0.871094 -0.570312 0.859375 -0.453125 0.890625 -0.339844 C 0.890625 -0.339844 0.890625 -0.324219 0.886719 -0.320312 C 0.890625 -0.203125 0.921875 -0.0898438 0.960938 0.0195312 C 1.011719 0.144531 1.0625 0.265625 1.125 0.378906 C 1.164062 0.464844 1.210938 0.539062 1.285156 0.601562 C 1.351562 0.660156 1.414062 0.730469 1.484375 0.785156 C 1.570312 0.851562 1.65625 0.914062 1.746094 0.976562 C 1.753906 0.980469 1.761719 0.984375 1.765625 0.988281 C 1.882812 1.03125 1.992188 1.082031 2.121094 1.101562 C 2.203125 1.117188 2.28125 1.125 2.359375 1.125 C 2.554688 1.128906 2.726562 1.074219 2.898438 1.007812 C 2.992188 0.96875 3.078125 0.929688 3.164062 0.886719 C 3.292969 0.8125 3.417969 0.757812 3.53125 0.664062 C 3.589844 0.617188 3.652344 0.570312 3.707031 0.527344 C 3.894531 0.371094 4.039062 0.1875 4.175781 0 C 4.390625 -0.289062 4.585938 -0.589844 4.742188 -0.90625 C 4.808594 -1.050781 4.871094 -1.199219 4.90625 -1.347656 C 4.976562 -1.621094 5.023438 -1.890625 5.070312 -2.164062 C 5.089844 -2.34375 5.09375 -2.523438 5.066406 -2.703125 C 5.050781 -2.816406 5.015625 -2.921875 4.957031 -3.027344 C 4.878906 -3.15625 4.796875 -3.28125 4.691406 -3.390625 C 4.605469 -3.484375 4.503906 -3.5625 4.394531 -3.628906 C 4.273438 -3.695312 4.148438 -3.746094 4.023438 -3.785156 C 3.902344 -3.824219 3.792969 -3.859375 3.671875 -3.847656 C 3.664062 -3.851562 3.660156 -3.84375 3.65625 -3.847656 C 3.5625 -3.871094 3.460938 -3.851562 3.371094 -3.832031 C 3.265625 -3.8125 3.15625 -3.789062 3.050781 -3.761719 C 2.847656 -3.714844 2.664062 -3.625 2.496094 -3.488281 C 2.464844 -3.457031 2.433594 -3.425781 2.394531 -3.398438 C 2.273438 -3.308594 2.171875 -3.1875 2.074219 -3.0625 C 1.964844 -2.914062 1.867188 -2.761719 1.761719 -2.617188 C 1.6875 -2.507812 1.609375 -2.402344 1.542969 -2.289062 C 1.464844 -2.167969 1.394531 -2.035156 1.324219 -1.898438 Z M 3.59375 -1.144531 C 3.472656 -0.910156 3.328125 -0.683594 3.167969 -0.464844 C 3.070312 -0.324219 2.941406 -0.203125 2.800781 -0.0976562 C 2.707031 -0.0273438 2.59375 0.0195312 2.476562 0.0273438 C 2.355469 0.0390625 2.246094 0.0117188 2.160156 -0.0820312 C 2.09375 -0.15625 2.027344 -0.238281 1.976562 -0.324219 C 1.914062 -0.425781 1.898438 -0.53125 1.898438 -0.644531 C 1.898438 -0.785156 1.9375 -0.910156 1.980469 -1.035156 C 2.070312 -1.320312 2.191406 -1.597656 2.339844 -1.851562 C 2.503906 -2.125 2.699219 -2.378906 2.96875 -2.554688 C 3.113281 -2.644531 3.261719 -2.710938 3.425781 -2.757812 C 3.496094 -2.785156 3.5625 -2.777344 3.632812 -2.738281 C 3.707031 -2.695312 3.78125 -2.648438 3.835938 -2.585938 C 3.867188 -2.550781 3.882812 -2.519531 3.890625 -2.484375 C 3.925781 -2.378906 3.921875 -2.265625 3.914062 -2.15625 C 3.902344 -1.960938 3.855469 -1.773438 3.785156 -1.589844 C 3.722656 -1.445312 3.65625 -1.300781 3.59375 -1.144531 Z M 3.59375 -1.144531 "/></g></g></g><g fill="#ffffff" fill-opacity="1"><g transform="translate(52.513894, 123.17622)"><g/></g></g><g fill="#ffffff" fill-opacity="1"><g transform="translate(55.918086, 124.539162)"><g><path d="M 0.976562 -2.101562 C 0.96875 -2.074219 0.960938 -2.046875 0.953125 -2.019531 C 0.839844 -1.734375 0.761719 -1.441406 0.75 -1.128906 C 0.746094 -1.03125 0.746094 -0.929688 0.75 -0.828125 C 0.761719 -0.710938 0.769531 -0.597656 0.816406 -0.488281 C 0.816406 -0.488281 0.820312 -0.472656 0.820312 -0.46875 C 0.84375 -0.355469 0.894531 -0.246094 0.953125 -0.144531 C 1.023438 -0.0351562 1.09375 0.078125 1.171875 0.179688 C 1.226562 0.257812 1.289062 0.320312 1.371094 0.371094 C 1.445312 0.417969 1.519531 0.476562 1.597656 0.515625 C 1.691406 0.570312 1.792969 0.617188 1.890625 0.664062 C 1.898438 0.664062 1.902344 0.667969 1.910156 0.667969 C 2.03125 0.691406 2.152344 0.722656 2.28125 0.71875 C 2.363281 0.71875 2.441406 0.714844 2.519531 0.703125 C 2.710938 0.671875 2.871094 0.585938 3.03125 0.492188 C 3.117188 0.4375 3.191406 0.386719 3.269531 0.328125 C 3.382812 0.234375 3.5 0.15625 3.59375 0.0429688 C 3.640625 -0.0078125 3.695312 -0.0664062 3.742188 -0.121094 C 3.898438 -0.304688 4.011719 -0.511719 4.113281 -0.722656 C 4.273438 -1.039062 4.417969 -1.375 4.515625 -1.710938 C 4.558594 -1.863281 4.589844 -2.019531 4.601562 -2.175781 C 4.621094 -2.457031 4.625 -2.726562 4.621094 -3.007812 C 4.609375 -3.183594 4.582031 -3.367188 4.523438 -3.535156 C 4.488281 -3.644531 4.4375 -3.742188 4.363281 -3.835938 C 4.261719 -3.949219 4.160156 -4.058594 4.039062 -4.148438 C 3.933594 -4.226562 3.824219 -4.285156 3.703125 -4.332031 C 3.574219 -4.378906 3.4375 -4.40625 3.308594 -4.425781 C 3.183594 -4.441406 3.070312 -4.453125 2.953125 -4.421875 C 2.945312 -4.425781 2.945312 -4.417969 2.9375 -4.417969 C 2.839844 -4.425781 2.746094 -4.390625 2.660156 -4.355469 C 2.558594 -4.320312 2.453125 -4.277344 2.359375 -4.230469 C 2.164062 -4.148438 2 -4.027344 1.859375 -3.867188 C 1.832031 -3.832031 1.804688 -3.792969 1.769531 -3.761719 C 1.667969 -3.648438 1.589844 -3.515625 1.515625 -3.375 C 1.433594 -3.210938 1.363281 -3.042969 1.28125 -2.878906 C 1.230469 -2.761719 1.171875 -2.644531 1.125 -2.523438 C 1.066406 -2.390625 1.023438 -2.246094 0.976562 -2.101562 Z M 3.34375 -1.75 C 3.261719 -1.496094 3.164062 -1.246094 3.042969 -1.007812 C 2.96875 -0.847656 2.863281 -0.707031 2.742188 -0.578125 C 2.660156 -0.492188 2.558594 -0.425781 2.445312 -0.402344 C 2.328125 -0.371094 2.214844 -0.375 2.113281 -0.453125 C 2.035156 -0.515625 1.957031 -0.585938 1.890625 -0.660156 C 1.8125 -0.75 1.777344 -0.851562 1.761719 -0.964844 C 1.734375 -1.101562 1.753906 -1.230469 1.769531 -1.359375 C 1.8125 -1.65625 1.882812 -1.953125 1.984375 -2.230469 C 2.101562 -2.523438 2.25 -2.808594 2.484375 -3.03125 C 2.609375 -3.140625 2.746094 -3.234375 2.898438 -3.308594 C 2.960938 -3.347656 3.03125 -3.347656 3.105469 -3.324219 C 3.1875 -3.292969 3.265625 -3.257812 3.332031 -3.207031 C 3.371094 -3.179688 3.390625 -3.152344 3.402344 -3.117188 C 3.457031 -3.019531 3.472656 -2.90625 3.484375 -2.796875 C 3.503906 -2.601562 3.492188 -2.410156 3.453125 -2.21875 C 3.417969 -2.0625 3.378906 -1.910156 3.34375 -1.75 Z M 3.34375 -1.75 "/></g></g></g><g fill="#ffffff" fill-opacity="1"><g transform="translate(62.029565, 126.321517)"><g><path d="M 4.039062 -2.492188 C 4.058594 -2.613281 4.082031 -2.742188 4.085938 -2.871094 C 4.097656 -3.03125 4.09375 -3.195312 4.089844 -3.355469 C 4.082031 -3.609375 4.027344 -3.847656 3.925781 -4.082031 C 3.871094 -4.214844 3.78125 -4.316406 3.65625 -4.390625 C 3.476562 -4.507812 3.285156 -4.578125 3.074219 -4.617188 C 2.8125 -4.679688 2.550781 -4.730469 2.28125 -4.785156 C 2.207031 -4.808594 2.128906 -4.816406 2.046875 -4.824219 C 1.976562 -4.839844 1.914062 -4.84375 1.84375 -4.859375 C 1.742188 -4.878906 1.644531 -4.90625 1.546875 -4.917969 C 1.496094 -4.929688 1.445312 -4.929688 1.402344 -4.925781 C 1.363281 -4.925781 1.339844 -4.910156 1.324219 -4.875 C 1.3125 -4.847656 1.296875 -4.8125 1.289062 -4.777344 C 1.21875 -4.5 1.148438 -4.210938 1.082031 -3.929688 C 1.035156 -3.699219 1.011719 -3.46875 0.972656 -3.234375 C 0.941406 -3.035156 0.90625 -2.835938 0.875 -2.628906 C 0.8125 -2.28125 0.746094 -1.929688 0.683594 -1.574219 C 0.609375 -1.175781 0.542969 -0.773438 0.472656 -0.375 C 0.460938 -0.324219 0.453125 -0.277344 0.433594 -0.226562 C 0.390625 -0.121094 0.390625 -0.00390625 0.367188 0.101562 C 0.367188 0.148438 0.382812 0.179688 0.425781 0.1875 C 0.550781 0.214844 0.679688 0.238281 0.808594 0.257812 C 0.921875 0.265625 1.027344 0.289062 1.136719 0.332031 C 1.179688 0.339844 1.222656 0.347656 1.265625 0.355469 C 1.308594 0.367188 1.332031 0.355469 1.34375 0.320312 C 1.351562 0.300781 1.351562 0.285156 1.355469 0.273438 C 1.402344 0.105469 1.441406 -0.0546875 1.476562 -0.226562 C 1.546875 -0.488281 1.605469 -0.757812 1.667969 -1.03125 C 1.679688 -1.082031 1.679688 -1.082031 1.730469 -1.078125 C 1.824219 -1.066406 1.921875 -1.054688 2.015625 -1.046875 C 2.25 -1.03125 2.484375 -1 2.722656 -1.011719 C 2.960938 -1.019531 3.171875 -1.097656 3.355469 -1.242188 C 3.375 -1.261719 3.390625 -1.273438 3.417969 -1.289062 C 3.582031 -1.410156 3.710938 -1.574219 3.792969 -1.765625 C 3.902344 -1.992188 3.996094 -2.238281 4.039062 -2.492188 Z M 2.082031 -2.878906 C 2.125 -3.113281 2.164062 -3.355469 2.207031 -3.597656 C 2.210938 -3.625 2.210938 -3.660156 2.230469 -3.671875 C 2.246094 -3.683594 2.28125 -3.667969 2.308594 -3.671875 C 2.382812 -3.664062 2.453125 -3.65625 2.523438 -3.648438 C 2.664062 -3.644531 2.792969 -3.601562 2.914062 -3.535156 C 2.980469 -3.5 3.019531 -3.445312 3.027344 -3.371094 C 3.03125 -3.347656 3.027344 -3.335938 3.039062 -3.320312 C 3.074219 -3.207031 3.066406 -3.101562 3.054688 -2.992188 C 3.035156 -2.746094 2.964844 -2.511719 2.839844 -2.292969 C 2.785156 -2.195312 2.707031 -2.105469 2.613281 -2.046875 C 2.554688 -2 2.476562 -1.992188 2.402344 -1.96875 C 2.292969 -1.949219 2.179688 -1.972656 2.074219 -1.984375 C 2.03125 -1.988281 1.984375 -1.988281 1.941406 -1.996094 C 1.921875 -2 1.910156 -2.011719 1.914062 -2.03125 C 1.929688 -2.101562 1.933594 -2.167969 1.949219 -2.238281 C 1.992188 -2.449219 2.03125 -2.660156 2.078125 -2.878906 C 2.078125 -2.878906 2.082031 -2.878906 2.082031 -2.878906 Z M 2.082031 -2.878906 "/></g></g></g><g fill="#ffffff" fill-opacity="1"><g transform="translate(67.811484, 127.357861)"><g><path d="M 1.269531 -1.96875 C 1.261719 -1.972656 1.261719 -1.972656 1.257812 -1.972656 C 1.230469 -1.714844 1.203125 -1.460938 1.179688 -1.203125 C 1.136719 -0.804688 1.105469 -0.394531 1.070312 0.0078125 C 1.058594 0.121094 1.089844 0.152344 1.191406 0.164062 C 1.265625 0.164062 1.335938 0.171875 1.40625 0.179688 C 1.449219 0.183594 1.492188 0.1875 1.535156 0.191406 C 1.585938 0.195312 1.644531 0.195312 1.695312 0.199219 C 1.761719 0.199219 1.824219 0.199219 1.882812 0.199219 C 1.917969 0.195312 1.945312 0.175781 1.953125 0.140625 C 1.957031 0.113281 1.96875 0.0820312 1.96875 0.0546875 C 2.039062 -0.566406 2.101562 -1.191406 2.171875 -1.804688 C 2.203125 -2.09375 2.230469 -2.371094 2.265625 -2.652344 C 2.296875 -2.886719 2.335938 -3.121094 2.359375 -3.359375 C 2.382812 -3.515625 2.398438 -3.671875 2.414062 -3.828125 C 2.421875 -3.894531 2.421875 -3.886719 2.476562 -3.886719 C 2.601562 -3.875 2.714844 -3.871094 2.839844 -3.875 C 2.976562 -3.867188 3.105469 -3.875 3.246094 -3.882812 C 3.324219 -3.890625 3.347656 -3.910156 3.355469 -3.996094 C 3.378906 -4.21875 3.402344 -4.4375 3.425781 -4.667969 C 3.433594 -4.738281 3.414062 -4.761719 3.339844 -4.769531 C 3.089844 -4.804688 2.839844 -4.835938 2.589844 -4.867188 C 2.328125 -4.902344 2.0625 -4.929688 1.796875 -4.957031 C 1.546875 -4.988281 1.296875 -5.019531 1.046875 -5.054688 C 0.960938 -5.0625 0.875 -5.078125 0.789062 -5.09375 C 0.753906 -5.097656 0.726562 -5.09375 0.695312 -5.0625 C 0.675781 -5.027344 0.65625 -4.992188 0.652344 -4.957031 C 0.632812 -4.742188 0.609375 -4.527344 0.585938 -4.304688 C 0.582031 -4.261719 0.570312 -4.21875 0.566406 -4.175781 C 0.5625 -4.125 0.582031 -4.101562 0.625 -4.097656 C 0.738281 -4.085938 0.851562 -4.066406 0.96875 -4.054688 C 1.113281 -4.046875 1.25 -4.035156 1.390625 -4.027344 C 1.441406 -4.023438 1.441406 -4.023438 1.4375 -3.964844 C 1.425781 -3.84375 1.410156 -3.722656 1.398438 -3.605469 C 1.378906 -3.332031 1.375 -3.058594 1.347656 -2.792969 C 1.328125 -2.523438 1.296875 -2.242188 1.269531 -1.96875 Z M 1.269531 -1.96875 "/></g></g></g><g fill="#ffffff" fill-opacity="1"><g transform="translate(73.080614, 127.774664)"><g><path d="M 1.347656 -2.355469 C 1.351562 -2.765625 1.359375 -3.183594 1.363281 -3.59375 C 1.363281 -3.6875 1.359375 -3.773438 1.351562 -3.867188 C 1.355469 -3.960938 1.351562 -4.054688 1.34375 -4.148438 C 1.347656 -4.234375 1.347656 -4.3125 1.351562 -4.390625 C 1.355469 -4.609375 1.359375 -4.824219 1.363281 -5.039062 C 1.359375 -5.105469 1.335938 -5.125 1.273438 -5.128906 C 1.238281 -5.128906 1.199219 -5.121094 1.171875 -5.125 C 1.113281 -5.125 1.0625 -5.117188 1.011719 -5.121094 C 0.875 -5.121094 0.746094 -5.132812 0.609375 -5.128906 C 0.480469 -5.132812 0.464844 -5.109375 0.457031 -4.980469 C 0.4375 -4.78125 0.417969 -4.570312 0.398438 -4.363281 C 0.378906 -4.082031 0.378906 -3.792969 0.394531 -3.511719 C 0.398438 -3.367188 0.410156 -3.222656 0.40625 -3.085938 C 0.398438 -2.726562 0.390625 -2.367188 0.382812 -2.007812 C 0.386719 -1.527344 0.339844 -1.035156 0.316406 -0.546875 C 0.304688 -0.382812 0.308594 -0.222656 0.296875 -0.0585938 C 0.296875 0 0.324219 0.0351562 0.375 0.0585938 C 0.394531 0.0664062 0.410156 0.0664062 0.429688 0.0664062 C 0.660156 0.0703125 0.898438 0.078125 1.128906 0.0820312 C 1.171875 0.0820312 1.195312 0.0625 1.195312 0.0117188 C 1.203125 -0.00390625 1.195312 -0.015625 1.195312 -0.0390625 C 1.203125 -0.101562 1.207031 -0.167969 1.214844 -0.230469 C 1.226562 -0.449219 1.253906 -0.664062 1.265625 -0.878906 C 1.277344 -1.039062 1.28125 -1.195312 1.289062 -1.355469 C 1.300781 -1.476562 1.304688 -1.597656 1.3125 -1.714844 C 1.324219 -1.921875 1.335938 -2.136719 1.347656 -2.355469 Z M 1.347656 -2.355469 "/></g></g></g><g fill="#ffffff" fill-opacity="1"><g transform="translate(76.905469, 127.824059)"><g><path d="M 2.847656 -2.828125 C 2.855469 -2.828125 2.855469 -2.828125 2.863281 -2.820312 C 2.867188 -2.769531 2.871094 -2.71875 2.878906 -2.671875 C 2.898438 -2.5 2.910156 -2.324219 2.9375 -2.160156 C 2.945312 -2.039062 2.960938 -1.925781 2.976562 -1.808594 C 2.980469 -1.773438 2.988281 -1.746094 2.992188 -1.710938 C 3.007812 -1.453125 3.035156 -1.1875 3.0625 -0.921875 C 3.085938 -0.691406 3.113281 -0.457031 3.136719 -0.226562 C 3.148438 -0.175781 3.171875 -0.148438 3.222656 -0.152344 C 3.238281 -0.148438 3.253906 -0.148438 3.265625 -0.148438 C 3.453125 -0.167969 3.640625 -0.183594 3.824219 -0.203125 C 3.839844 -0.203125 3.847656 -0.203125 3.863281 -0.207031 C 3.917969 -0.230469 3.980469 -0.234375 4.046875 -0.238281 C 4.066406 -0.242188 4.097656 -0.242188 4.117188 -0.246094 C 4.191406 -0.257812 4.222656 -0.300781 4.21875 -0.375 C 4.222656 -0.390625 4.214844 -0.410156 4.214844 -0.425781 C 4.1875 -0.71875 4.160156 -1.003906 4.132812 -1.292969 C 4.101562 -1.519531 4.070312 -1.734375 4.042969 -1.964844 C 4.007812 -2.230469 3.980469 -2.5 3.957031 -2.773438 C 3.925781 -3.023438 3.914062 -3.277344 3.882812 -3.527344 C 3.859375 -3.761719 3.820312 -3.992188 3.796875 -4.226562 C 3.765625 -4.476562 3.742188 -4.722656 3.714844 -4.972656 C 3.707031 -5.089844 3.691406 -5.203125 3.675781 -5.316406 C 3.675781 -5.339844 3.675781 -5.359375 3.664062 -5.382812 C 3.648438 -5.4375 3.632812 -5.449219 3.566406 -5.453125 C 3.472656 -5.453125 3.378906 -5.453125 3.285156 -5.460938 C 3.109375 -5.480469 2.933594 -5.445312 2.757812 -5.449219 C 2.714844 -5.445312 2.695312 -5.421875 2.683594 -5.378906 C 2.636719 -5.238281 2.582031 -5.101562 2.539062 -4.964844 C 2.449219 -4.71875 2.367188 -4.46875 2.28125 -4.222656 C 2.269531 -4.1875 2.257812 -4.140625 2.238281 -4.105469 C 2.160156 -3.917969 2.078125 -3.734375 1.996094 -3.546875 C 1.992188 -3.53125 1.984375 -3.523438 1.96875 -3.507812 C 1.953125 -3.535156 1.929688 -3.554688 1.921875 -3.578125 C 1.882812 -3.648438 1.839844 -3.714844 1.804688 -3.785156 C 1.71875 -3.921875 1.636719 -4.070312 1.554688 -4.214844 C 1.488281 -4.320312 1.4375 -4.429688 1.371094 -4.542969 C 1.28125 -4.6875 1.207031 -4.847656 1.136719 -5.007812 C 1.109375 -5.078125 1.070312 -5.148438 1.035156 -5.21875 C 1.019531 -5.253906 0.988281 -5.28125 0.949219 -5.285156 C 0.851562 -5.285156 0.75 -5.292969 0.648438 -5.292969 C 0.609375 -5.296875 0.574219 -5.292969 0.539062 -5.292969 C 0.378906 -5.296875 0.214844 -5.285156 0.0585938 -5.238281 C 0.0078125 -5.226562 -0.0117188 -5.210938 -0.0078125 -5.160156 C -0.0117188 -5.015625 -0.015625 -4.871094 -0.00390625 -4.71875 C 0.0078125 -4.425781 0.0273438 -4.128906 0.0507812 -3.835938 C 0.09375 -3.195312 0.136719 -2.566406 0.175781 -1.933594 C 0.203125 -1.558594 0.21875 -1.191406 0.238281 -0.824219 C 0.246094 -0.585938 0.269531 -0.359375 0.289062 -0.121094 C 0.292969 -0.0351562 0.308594 -0.0078125 0.402344 -0.0078125 C 0.535156 0.0078125 0.664062 0.00390625 0.792969 0.00390625 C 0.972656 -0.00390625 1.160156 -0.046875 1.339844 -0.0664062 C 1.410156 -0.078125 1.429688 -0.101562 1.425781 -0.171875 C 1.421875 -0.230469 1.410156 -0.277344 1.40625 -0.335938 C 1.394531 -0.472656 1.386719 -0.609375 1.375 -0.746094 C 1.332031 -1.40625 1.292969 -2.066406 1.253906 -2.730469 C 1.253906 -2.738281 1.25 -2.75 1.257812 -2.773438 C 1.273438 -2.746094 1.28125 -2.730469 1.289062 -2.710938 C 1.40625 -2.496094 1.515625 -2.269531 1.632812 -2.054688 C 1.683594 -1.949219 1.742188 -1.839844 1.804688 -1.734375 C 1.871094 -1.625 1.945312 -1.515625 2.035156 -1.425781 C 2.074219 -1.402344 2.113281 -1.382812 2.148438 -1.378906 C 2.191406 -1.367188 2.21875 -1.382812 2.238281 -1.417969 C 2.292969 -1.503906 2.335938 -1.578125 2.378906 -1.667969 C 2.511719 -1.945312 2.636719 -2.226562 2.738281 -2.515625 C 2.761719 -2.605469 2.792969 -2.683594 2.832031 -2.773438 C 2.835938 -2.789062 2.84375 -2.8125 2.847656 -2.828125 Z M 2.847656 -2.828125 "/></g></g></g><g fill="#ffffff" fill-opacity="1"><g transform="translate(83.640657, 127.181821)"><g><path d="M 0.894531 -2.5625 C 0.820312 -2.964844 0.753906 -3.375 0.679688 -3.78125 C 0.667969 -3.875 0.644531 -3.957031 0.625 -4.046875 C 0.609375 -4.140625 0.585938 -4.230469 0.5625 -4.324219 C 0.550781 -4.410156 0.535156 -4.488281 0.523438 -4.566406 C 0.488281 -4.777344 0.453125 -4.992188 0.417969 -5.203125 C 0.402344 -5.265625 0.378906 -5.285156 0.3125 -5.273438 C 0.277344 -5.269531 0.242188 -5.257812 0.214844 -5.25 C 0.160156 -5.242188 0.109375 -5.226562 0.0585938 -5.21875 C -0.0742188 -5.195312 -0.203125 -5.183594 -0.335938 -5.152344 C -0.464844 -5.132812 -0.476562 -5.109375 -0.460938 -4.980469 C -0.445312 -4.777344 -0.425781 -4.570312 -0.40625 -4.363281 C -0.375 -4.082031 -0.320312 -3.800781 -0.253906 -3.527344 C -0.222656 -3.386719 -0.1875 -3.246094 -0.164062 -3.109375 C -0.105469 -2.753906 -0.046875 -2.398438 0.0078125 -2.042969 C 0.101562 -1.570312 0.144531 -1.082031 0.210938 -0.597656 C 0.230469 -0.429688 0.261719 -0.277344 0.28125 -0.113281 C 0.289062 -0.0546875 0.324219 -0.0234375 0.378906 -0.0117188 C 0.398438 -0.0078125 0.414062 -0.0078125 0.4375 -0.0117188 C 0.664062 -0.0507812 0.898438 -0.0898438 1.125 -0.125 C 1.167969 -0.132812 1.183594 -0.15625 1.175781 -0.207031 C 1.183594 -0.222656 1.171875 -0.234375 1.167969 -0.257812 C 1.164062 -0.320312 1.15625 -0.386719 1.152344 -0.449219 C 1.125 -0.664062 1.109375 -0.882812 1.082031 -1.097656 C 1.066406 -1.253906 1.039062 -1.410156 1.019531 -1.566406 C 1.007812 -1.6875 0.988281 -1.808594 0.976562 -1.925781 C 0.949219 -2.132812 0.921875 -2.347656 0.894531 -2.5625 Z M 0.894531 -2.5625 "/></g></g></g><g fill="#ffffff" fill-opacity="1"><g transform="translate(87.390126, 126.52218)"><g><path d="M 3.371094 -1.007812 C 3.359375 -1.054688 3.34375 -1.105469 3.332031 -1.152344 C 3.320312 -1.171875 3.308594 -1.183594 3.304688 -1.207031 C 3.277344 -1.308594 3.285156 -1.28125 3.257812 -1.386719 C 3.253906 -1.402344 3.257812 -1.421875 3.261719 -1.4375 C 3.246094 -1.5 3.226562 -1.570312 3.210938 -1.640625 C 3.199219 -1.660156 3.183594 -1.679688 3.179688 -1.707031 C 3.160156 -1.777344 3.121094 -1.820312 3.027344 -1.804688 C 2.929688 -1.785156 2.839844 -1.757812 2.75 -1.734375 C 2.644531 -1.707031 2.546875 -1.683594 2.449219 -1.65625 C 2.253906 -1.609375 2.054688 -1.566406 1.859375 -1.515625 C 1.679688 -1.464844 1.5 -1.410156 1.3125 -1.355469 C 1.277344 -1.347656 1.242188 -1.339844 1.203125 -1.328125 C 1.199219 -1.335938 1.199219 -1.34375 1.203125 -1.351562 C 1.246094 -1.449219 1.28125 -1.546875 1.332031 -1.644531 C 1.4375 -1.871094 1.519531 -2.105469 1.601562 -2.339844 C 1.628906 -2.40625 1.640625 -2.472656 1.675781 -2.539062 C 1.730469 -2.648438 1.765625 -2.769531 1.804688 -2.890625 C 1.863281 -3.097656 1.921875 -3.300781 1.980469 -3.507812 C 2.007812 -3.574219 2.011719 -3.648438 2.03125 -3.71875 C 2.128906 -4.042969 2.226562 -4.355469 2.332031 -4.679688 C 2.355469 -4.761719 2.375 -4.839844 2.351562 -4.929688 C 2.300781 -5.132812 2.273438 -5.265625 2.230469 -5.46875 C 2.210938 -5.539062 2.195312 -5.609375 2.175781 -5.679688 C 2.15625 -5.75 2.140625 -5.761719 2.078125 -5.746094 C 1.957031 -5.726562 1.835938 -5.699219 1.714844 -5.675781 C 1.667969 -5.664062 1.617188 -5.652344 1.570312 -5.636719 C 1.449219 -5.59375 1.320312 -5.546875 1.195312 -5.507812 C 0.921875 -5.4375 0.65625 -5.378906 0.382812 -5.316406 C 0.144531 -5.257812 -0.09375 -5.195312 -0.335938 -5.136719 C -0.40625 -5.117188 -0.472656 -5.085938 -0.542969 -5.0625 C -0.609375 -5.03125 -0.625 -5.003906 -0.597656 -4.929688 C -0.59375 -4.921875 -0.59375 -4.914062 -0.59375 -4.90625 C -0.554688 -4.722656 -0.539062 -4.617188 -0.496094 -4.433594 C -0.476562 -4.335938 -0.457031 -4.226562 -0.402344 -4.128906 C -0.378906 -4.09375 -0.359375 -4.074219 -0.3125 -4.085938 C -0.289062 -4.09375 -0.269531 -4.097656 -0.25 -4.101562 C 0.0429688 -4.160156 0.328125 -4.234375 0.601562 -4.324219 C 0.800781 -4.390625 1 -4.449219 1.199219 -4.511719 C 1.214844 -4.515625 1.226562 -4.519531 1.25 -4.527344 C 1.253906 -4.511719 1.246094 -4.503906 1.25 -4.496094 C 1.171875 -4.246094 1.101562 -3.992188 1.023438 -3.746094 C 0.941406 -3.511719 0.882812 -3.265625 0.777344 -3.039062 C 0.777344 -3.015625 0.765625 -3 0.761719 -2.976562 C 0.738281 -2.898438 0.707031 -2.820312 0.6875 -2.742188 C 0.628906 -2.511719 0.550781 -2.292969 0.464844 -2.078125 C 0.351562 -1.757812 0.226562 -1.453125 0.105469 -1.148438 C 0.0898438 -1.113281 0.078125 -1.082031 0.0664062 -1.054688 C 0.0664062 -1.035156 0.0585938 -1.007812 0.0625 -0.980469 C 0.0742188 -0.917969 0.0898438 -0.847656 0.109375 -0.777344 C 0.136719 -0.644531 0.167969 -0.511719 0.207031 -0.378906 C 0.238281 -0.269531 0.238281 -0.289062 0.273438 -0.1875 C 0.292969 -0.105469 0.335938 -0.0859375 0.417969 -0.105469 C 0.488281 -0.125 0.558594 -0.140625 0.628906 -0.160156 C 0.871094 -0.21875 1.117188 -0.273438 1.363281 -0.34375 C 1.558594 -0.394531 1.753906 -0.457031 1.957031 -0.515625 C 2.234375 -0.585938 2.515625 -0.65625 2.792969 -0.726562 C 2.945312 -0.773438 3.09375 -0.804688 3.246094 -0.855469 C 3.3125 -0.878906 3.359375 -0.929688 3.371094 -1.007812 Z M 3.371094 -1.007812 "/></g></g></g><g fill="#ffffff" fill-opacity="1"><g transform="translate(93.246954, 124.918561)"><g><path d="M 0.90625 -2.074219 C 0.90625 -2.074219 0.90625 -2.074219 0.910156 -2.074219 C 0.875 -2.167969 0.847656 -2.265625 0.8125 -2.359375 C 0.777344 -2.457031 0.746094 -2.542969 0.710938 -2.636719 C 0.703125 -2.6875 0.703125 -2.679688 0.738281 -2.714844 C 0.785156 -2.757812 0.832031 -2.773438 0.886719 -2.792969 C 1.007812 -2.855469 1.128906 -2.921875 1.253906 -2.980469 C 1.296875 -3.007812 1.34375 -3.023438 1.386719 -3.039062 C 1.453125 -3.070312 1.515625 -3.101562 1.574219 -3.128906 C 1.652344 -3.167969 1.734375 -3.195312 1.804688 -3.230469 C 1.886719 -3.265625 1.886719 -3.300781 1.863281 -3.375 C 1.820312 -3.480469 1.785156 -3.582031 1.742188 -3.683594 C 1.699219 -3.796875 1.652344 -3.902344 1.609375 -4.019531 C 1.582031 -4.070312 1.554688 -4.089844 1.492188 -4.082031 C 1.480469 -4.078125 1.464844 -4.078125 1.449219 -4.074219 C 1.378906 -4.039062 1.3125 -4.015625 1.238281 -3.980469 C 1.15625 -3.941406 1.0625 -3.902344 0.964844 -3.875 C 0.828125 -3.832031 0.6875 -3.792969 0.558594 -3.726562 C 0.5 -3.695312 0.441406 -3.671875 0.382812 -3.644531 C 0.355469 -3.628906 0.347656 -3.632812 0.332031 -3.65625 C 0.265625 -3.839844 0.199219 -4.023438 0.128906 -4.203125 C 0.113281 -4.25 0.117188 -4.246094 0.160156 -4.269531 C 0.265625 -4.320312 0.375 -4.378906 0.476562 -4.429688 C 0.539062 -4.46875 0.601562 -4.507812 0.675781 -4.535156 C 0.878906 -4.609375 1.082031 -4.683594 1.277344 -4.777344 C 1.375 -4.828125 1.46875 -4.863281 1.566406 -4.890625 C 1.609375 -4.898438 1.648438 -4.921875 1.679688 -4.941406 C 1.714844 -4.960938 1.730469 -4.988281 1.722656 -5.027344 C 1.726562 -5.082031 1.710938 -5.128906 1.683594 -5.179688 C 1.671875 -5.207031 1.652344 -5.238281 1.644531 -5.265625 C 1.582031 -5.410156 1.515625 -5.554688 1.453125 -5.699219 C 1.425781 -5.753906 1.402344 -5.8125 1.382812 -5.875 C 1.375 -5.886719 1.371094 -5.902344 1.367188 -5.914062 C 1.34375 -5.960938 1.316406 -5.964844 1.273438 -5.957031 C 1.238281 -5.953125 1.203125 -5.945312 1.167969 -5.933594 C 0.960938 -5.851562 0.746094 -5.769531 0.539062 -5.6875 C 0.328125 -5.59375 0.109375 -5.515625 -0.109375 -5.449219 C -0.214844 -5.417969 -0.328125 -5.394531 -0.429688 -5.355469 C -0.621094 -5.292969 -0.820312 -5.226562 -1.007812 -5.160156 C -1.058594 -5.148438 -1.117188 -5.136719 -1.164062 -5.125 C -1.210938 -5.109375 -1.253906 -5.09375 -1.300781 -5.074219 C -1.351562 -5.046875 -1.363281 -5.015625 -1.347656 -4.949219 C -1.316406 -4.871094 -1.296875 -4.792969 -1.273438 -4.710938 C -1.226562 -4.542969 -1.191406 -4.378906 -1.132812 -4.21875 C -1.050781 -3.972656 -0.960938 -3.726562 -0.863281 -3.480469 C -0.765625 -3.238281 -0.664062 -3.007812 -0.570312 -2.765625 C -0.503906 -2.605469 -0.453125 -2.449219 -0.398438 -2.285156 C -0.308594 -1.972656 -0.203125 -1.664062 -0.0976562 -1.351562 C -0.0703125 -1.253906 -0.0351562 -1.160156 -0.0078125 -1.0625 C 0.0351562 -0.902344 0.0898438 -0.738281 0.132812 -0.578125 C 0.164062 -0.472656 0.1875 -0.367188 0.21875 -0.265625 C 0.226562 -0.222656 0.242188 -0.179688 0.253906 -0.144531 C 0.269531 -0.0976562 0.304688 -0.0898438 0.347656 -0.0976562 C 0.410156 -0.113281 0.476562 -0.121094 0.539062 -0.144531 C 0.667969 -0.183594 0.800781 -0.222656 0.917969 -0.277344 C 1.136719 -0.355469 1.34375 -0.429688 1.550781 -0.515625 C 1.570312 -0.523438 1.59375 -0.53125 1.605469 -0.535156 C 1.683594 -0.570312 1.753906 -0.597656 1.824219 -0.628906 C 1.992188 -0.691406 2.15625 -0.75 2.324219 -0.8125 C 2.429688 -0.859375 2.542969 -0.910156 2.660156 -0.945312 C 2.789062 -0.984375 2.929688 -1.027344 3.042969 -1.113281 C 3.105469 -1.167969 3.125 -1.207031 3.09375 -1.289062 C 3.027344 -1.46875 2.960938 -1.644531 2.898438 -1.820312 C 2.878906 -1.875 2.851562 -1.925781 2.820312 -1.976562 C 2.78125 -2.03125 2.738281 -2.046875 2.671875 -2.023438 C 2.644531 -2.011719 2.617188 -2.003906 2.589844 -1.992188 C 2.425781 -1.917969 2.253906 -1.839844 2.085938 -1.777344 C 1.898438 -1.699219 1.710938 -1.632812 1.523438 -1.570312 C 1.457031 -1.546875 1.378906 -1.527344 1.3125 -1.507812 C 1.269531 -1.492188 1.226562 -1.484375 1.1875 -1.46875 C 1.132812 -1.449219 1.128906 -1.457031 1.113281 -1.503906 C 1.042969 -1.695312 0.972656 -1.882812 0.90625 -2.074219 Z M 0.90625 -2.074219 "/></g></g></g><g fill="#ffffff" fill-opacity="1"><g transform="translate(98.776245, 122.771406)"><g><path d="M -0.0390625 -0.925781 C -0.03125 -0.929688 -0.03125 -0.929688 -0.0273438 -0.933594 C 0.105469 -0.667969 0.238281 -0.398438 0.367188 -0.132812 C 0.390625 -0.0859375 0.417969 -0.078125 0.46875 -0.109375 C 0.558594 -0.152344 0.652344 -0.207031 0.742188 -0.253906 C 0.921875 -0.332031 1.085938 -0.4375 1.242188 -0.539062 C 1.277344 -0.554688 1.277344 -0.582031 1.273438 -0.609375 C 1.261719 -0.628906 1.25 -0.65625 1.238281 -0.679688 C 1.054688 -1.054688 0.867188 -1.4375 0.675781 -1.808594 C 0.652344 -1.859375 0.652344 -1.859375 0.699219 -1.890625 C 0.785156 -1.941406 0.867188 -1.992188 0.953125 -2.042969 C 0.984375 -2.0625 1 -2.0625 1.023438 -2.035156 C 1.0625 -2 1.105469 -1.960938 1.148438 -1.921875 C 1.230469 -1.855469 1.304688 -1.789062 1.390625 -1.726562 C 1.488281 -1.652344 1.59375 -1.59375 1.6875 -1.527344 C 1.757812 -1.480469 1.832031 -1.445312 1.890625 -1.394531 C 2.003906 -1.289062 2.125 -1.195312 2.253906 -1.113281 C 2.289062 -1.089844 2.320312 -1.089844 2.355469 -1.101562 C 2.4375 -1.140625 2.53125 -1.179688 2.621094 -1.230469 C 2.746094 -1.300781 2.859375 -1.378906 2.984375 -1.449219 C 3.058594 -1.496094 3.132812 -1.53125 3.179688 -1.59375 C 3.214844 -1.636719 3.226562 -1.65625 3.195312 -1.707031 C 3.160156 -1.761719 3.121094 -1.8125 3.070312 -1.863281 C 2.972656 -1.949219 2.875 -2.03125 2.765625 -2.113281 C 2.65625 -2.1875 2.546875 -2.277344 2.449219 -2.375 C 2.445312 -2.386719 2.433594 -2.398438 2.417969 -2.40625 C 2.324219 -2.488281 2.226562 -2.570312 2.132812 -2.644531 C 2.078125 -2.691406 2.027344 -2.730469 1.976562 -2.769531 C 1.917969 -2.804688 1.863281 -2.839844 1.792969 -2.878906 C 1.777344 -2.894531 1.773438 -2.90625 1.785156 -2.929688 C 1.816406 -2.984375 1.84375 -3.039062 1.867188 -3.089844 C 1.878906 -3.128906 1.894531 -3.160156 1.898438 -3.203125 C 1.917969 -3.332031 1.929688 -3.46875 1.910156 -3.59375 C 1.878906 -3.800781 1.839844 -4.015625 1.75 -4.210938 C 1.703125 -4.324219 1.644531 -4.441406 1.585938 -4.558594 C 1.4375 -4.863281 1.230469 -5.121094 0.980469 -5.351562 C 0.929688 -5.390625 0.886719 -5.441406 0.832031 -5.472656 C 0.597656 -5.613281 0.347656 -5.695312 0.0703125 -5.65625 C -0.00390625 -5.644531 -0.078125 -5.625 -0.140625 -5.59375 C -0.320312 -5.503906 -0.507812 -5.40625 -0.695312 -5.316406 C -0.863281 -5.230469 -1.039062 -5.152344 -1.214844 -5.066406 C -1.257812 -5.046875 -1.300781 -5.03125 -1.339844 -5.011719 C -1.402344 -4.976562 -1.457031 -4.941406 -1.519531 -4.910156 C -1.566406 -4.886719 -1.613281 -4.871094 -1.660156 -4.847656 C -1.703125 -4.835938 -1.742188 -4.824219 -1.792969 -4.808594 C -1.839844 -4.792969 -1.890625 -4.78125 -1.929688 -4.746094 C -1.957031 -4.71875 -1.960938 -4.691406 -1.945312 -4.660156 C -1.910156 -4.589844 -1.878906 -4.515625 -1.847656 -4.449219 C -1.644531 -3.996094 -1.425781 -3.550781 -1.191406 -3.113281 C -1.101562 -2.941406 -1.007812 -2.769531 -0.914062 -2.597656 C -0.859375 -2.480469 -0.800781 -2.367188 -0.742188 -2.257812 C -0.636719 -2.0625 -0.523438 -1.867188 -0.421875 -1.675781 C -0.292969 -1.429688 -0.167969 -1.175781 -0.0390625 -0.925781 Z M -0.148438 -3.519531 C -0.269531 -3.765625 -0.390625 -4.011719 -0.507812 -4.25 C -0.527344 -4.289062 -0.527344 -4.289062 -0.496094 -4.304688 C -0.453125 -4.335938 -0.414062 -4.351562 -0.378906 -4.378906 C -0.289062 -4.4375 -0.191406 -4.488281 -0.0859375 -4.523438 C -0.0078125 -4.554688 0.0742188 -4.550781 0.152344 -4.519531 C 0.246094 -4.492188 0.324219 -4.449219 0.398438 -4.382812 C 0.449219 -4.328125 0.515625 -4.289062 0.5625 -4.214844 C 0.585938 -4.164062 0.613281 -4.121094 0.640625 -4.070312 C 0.722656 -3.917969 0.808594 -3.773438 0.851562 -3.609375 C 0.875 -3.511719 0.878906 -3.402344 0.851562 -3.296875 C 0.828125 -3.230469 0.796875 -3.167969 0.753906 -3.105469 C 0.699219 -3.03125 0.628906 -2.980469 0.566406 -2.917969 C 0.554688 -2.902344 0.542969 -2.898438 0.527344 -2.890625 C 0.445312 -2.851562 0.355469 -2.804688 0.269531 -2.765625 C 0.21875 -2.738281 0.21875 -2.738281 0.191406 -2.796875 C 0.113281 -2.953125 0.0429688 -3.117188 -0.0273438 -3.273438 C -0.0703125 -3.359375 -0.109375 -3.441406 -0.148438 -3.519531 Z M -0.148438 -3.519531 "/></g></g></g><g fill="#ffffff" fill-opacity="1"><g transform="translate(104.217774, 119.935169)"><g/></g></g><g fill="#ffffff" fill-opacity="1"><g transform="translate(107.336952, 118.011533)"><g><path d="M 0.0273438 -0.207031 C 0.0546875 -0.183594 0.0742188 -0.152344 0.105469 -0.136719 C 0.144531 -0.105469 0.191406 -0.101562 0.234375 -0.132812 C 0.289062 -0.164062 0.335938 -0.199219 0.386719 -0.238281 C 0.449219 -0.273438 0.503906 -0.320312 0.566406 -0.359375 C 0.695312 -0.453125 0.832031 -0.542969 0.964844 -0.628906 C 1.007812 -0.660156 1.023438 -0.699219 1.019531 -0.738281 C 1.019531 -0.777344 1.015625 -0.816406 1.007812 -0.855469 C 0.964844 -1 0.917969 -1.148438 0.867188 -1.296875 C 0.851562 -1.339844 0.847656 -1.34375 0.894531 -1.367188 C 0.953125 -1.410156 1.007812 -1.441406 1.066406 -1.484375 C 1.222656 -1.589844 1.378906 -1.703125 1.535156 -1.808594 C 1.585938 -1.84375 1.640625 -1.894531 1.695312 -1.929688 C 1.71875 -1.949219 1.734375 -1.949219 1.761719 -1.925781 C 1.808594 -1.882812 1.863281 -1.832031 1.921875 -1.785156 C 2.011719 -1.714844 2.105469 -1.644531 2.199219 -1.578125 C 2.273438 -1.523438 2.296875 -1.53125 2.355469 -1.59375 C 2.4375 -1.679688 2.527344 -1.761719 2.628906 -1.835938 C 2.648438 -1.839844 2.664062 -1.859375 2.679688 -1.871094 C 2.792969 -1.972656 2.914062 -2.078125 3.039062 -2.175781 C 3.101562 -2.222656 3.109375 -2.300781 3.054688 -2.347656 C 2.988281 -2.417969 2.917969 -2.472656 2.851562 -2.53125 C 2.828125 -2.550781 2.800781 -2.574219 2.773438 -2.589844 C 2.710938 -2.640625 2.652344 -2.695312 2.585938 -2.75 C 2.484375 -2.828125 2.375 -2.90625 2.269531 -2.988281 C 2.09375 -3.136719 1.921875 -3.289062 1.75 -3.4375 C 1.613281 -3.554688 1.472656 -3.65625 1.335938 -3.773438 C 1.128906 -3.941406 0.921875 -4.101562 0.71875 -4.265625 C 0.667969 -4.300781 0.628906 -4.332031 0.585938 -4.367188 C 0.464844 -4.464844 0.34375 -4.554688 0.226562 -4.65625 C 0.152344 -4.707031 0.078125 -4.761719 0.0234375 -4.835938 C 0.0234375 -4.847656 0.015625 -4.847656 0.00390625 -4.859375 C -0.0820312 -4.929688 -0.160156 -5.003906 -0.253906 -5.082031 C -0.339844 -5.152344 -0.433594 -5.21875 -0.511719 -5.304688 C -0.59375 -5.394531 -0.699219 -5.453125 -0.796875 -5.523438 C -0.847656 -5.566406 -0.902344 -5.597656 -0.96875 -5.613281 C -1.023438 -5.628906 -1.054688 -5.621094 -1.101562 -5.589844 C -1.230469 -5.484375 -1.363281 -5.386719 -1.492188 -5.285156 C -1.570312 -5.230469 -1.644531 -5.175781 -1.714844 -5.109375 C -1.757812 -5.058594 -1.769531 -5.015625 -1.75 -4.964844 C -1.710938 -4.824219 -1.675781 -4.691406 -1.636719 -4.558594 C -1.597656 -4.460938 -1.558594 -4.367188 -1.523438 -4.269531 C -1.503906 -4.230469 -1.484375 -4.191406 -1.464844 -4.152344 C -1.410156 -4.003906 -1.351562 -3.847656 -1.292969 -3.695312 C -1.242188 -3.539062 -1.183594 -3.375 -1.132812 -3.214844 C -1.085938 -3.089844 -1.035156 -2.976562 -0.996094 -2.855469 C -0.941406 -2.734375 -0.894531 -2.617188 -0.847656 -2.492188 C -0.730469 -2.183594 -0.609375 -1.871094 -0.476562 -1.566406 C -0.359375 -1.292969 -0.238281 -1.019531 -0.148438 -0.730469 C -0.109375 -0.632812 -0.0742188 -0.53125 -0.0546875 -0.429688 C -0.0429688 -0.351562 -0.0234375 -0.277344 0.0273438 -0.207031 Z M -0.0429688 -3.589844 C 0.0507812 -3.496094 0.140625 -3.410156 0.238281 -3.324219 C 0.339844 -3.226562 0.449219 -3.136719 0.5625 -3.058594 C 0.636719 -3.007812 0.710938 -2.945312 0.773438 -2.871094 C 0.621094 -2.773438 0.472656 -2.671875 0.316406 -2.570312 C 0.3125 -2.585938 0.304688 -2.597656 0.300781 -2.613281 C 0.292969 -2.660156 0.277344 -2.707031 0.269531 -2.757812 C 0.238281 -2.871094 0.195312 -2.96875 0.148438 -3.070312 C 0.0976562 -3.164062 0.0585938 -3.28125 0.0234375 -3.386719 C -0.00390625 -3.4375 -0.0273438 -3.496094 -0.0429688 -3.542969 C -0.046875 -3.558594 -0.0507812 -3.574219 -0.0546875 -3.582031 C -0.046875 -3.585938 -0.046875 -3.585938 -0.0429688 -3.589844 Z M -0.0429688 -3.589844 "/></g></g></g><g fill="#ffffff" fill-opacity="1"><g transform="translate(112.288705, 114.233164)"><g><path d="M -0.582031 -2.648438 C -0.859375 -2.953125 -1.132812 -3.269531 -1.40625 -3.574219 C -1.46875 -3.644531 -1.527344 -3.707031 -1.597656 -3.773438 C -1.65625 -3.84375 -1.722656 -3.910156 -1.789062 -3.976562 C -1.847656 -4.039062 -1.898438 -4.101562 -1.953125 -4.160156 C -2.09375 -4.324219 -2.234375 -4.484375 -2.375 -4.648438 C -2.425781 -4.695312 -2.453125 -4.695312 -2.503906 -4.652344 C -2.53125 -4.628906 -2.554688 -4.601562 -2.574219 -4.582031 C -2.617188 -4.542969 -2.652344 -4.503906 -2.691406 -4.472656 C -2.792969 -4.382812 -2.894531 -4.304688 -2.996094 -4.207031 C -3.09375 -4.125 -3.089844 -4.097656 -3.007812 -3.996094 C -2.886719 -3.832031 -2.761719 -3.667969 -2.636719 -3.5 C -2.460938 -3.277344 -2.269531 -3.066406 -2.066406 -2.867188 C -1.96875 -2.761719 -1.863281 -2.664062 -1.773438 -2.558594 C -1.539062 -2.289062 -1.300781 -2.015625 -1.066406 -1.746094 C -0.738281 -1.390625 -0.445312 -0.996094 -0.136719 -0.617188 C -0.03125 -0.488281 0.078125 -0.371094 0.179688 -0.242188 C 0.21875 -0.199219 0.261719 -0.191406 0.316406 -0.207031 C 0.335938 -0.214844 0.347656 -0.226562 0.363281 -0.238281 C 0.539062 -0.390625 0.71875 -0.546875 0.890625 -0.699219 C 0.925781 -0.726562 0.925781 -0.757812 0.894531 -0.792969 C 0.890625 -0.808594 0.875 -0.816406 0.859375 -0.832031 C 0.824219 -0.886719 0.78125 -0.933594 0.742188 -0.988281 C 0.609375 -1.15625 0.480469 -1.332031 0.347656 -1.5 C 0.246094 -1.625 0.144531 -1.746094 0.046875 -1.871094 C -0.0273438 -1.96875 -0.109375 -2.058594 -0.179688 -2.152344 C -0.3125 -2.3125 -0.445312 -2.480469 -0.582031 -2.648438 Z M -0.582031 -2.648438 "/></g></g></g></svg>